<svg width="12" height="12" viewBox="0 0 12 12" fill="none" xmlns="http://www.w3.org/2000/svg">
<path d="M5.99748 0.74974C7.38933 0.74974 8.72418 1.30286 9.70837 2.28743C10.6926 3.27199 11.2455 4.60735 11.2455 5.99974C11.2455 7.39213 10.6926 8.72748 9.70837 9.71205C8.72418 10.6966 7.38933 11.2497 5.99748 11.2497C4.60562 11.2497 3.27077 10.6966 2.28658 9.71205C1.30239 8.72748 0.749479 7.39213 0.749479 5.99974C0.749479 4.60735 1.30239 3.27199 2.28658 2.28743C3.27077 1.30286 4.60562 0.74974 5.99748 0.74974ZM5.34373 7.03549L4.17792 5.86849C4.13613 5.82668 4.08651 5.79351 4.03191 5.77089C3.9773 5.74826 3.91877 5.73661 3.85967 5.73661C3.80056 5.73661 3.74204 5.74826 3.68743 5.77089C3.63282 5.79351 3.58321 5.82668 3.54141 5.86849C3.45701 5.95293 3.40959 6.06745 3.40959 6.18686C3.40959 6.30628 3.45701 6.4208 3.54141 6.50524L5.02585 7.99024C5.06752 8.03226 5.1171 8.06561 5.17173 8.08837C5.22635 8.11113 5.28493 8.12284 5.3441 8.12284C5.40327 8.12284 5.46186 8.11113 5.51648 8.08837C5.5711 8.06561 5.62068 8.03226 5.66236 7.99024L8.73618 4.91449C8.77854 4.87285 8.81223 4.82324 8.83532 4.76851C8.85841 4.71379 8.87044 4.65503 8.87071 4.59562C8.87099 4.53622 8.85951 4.47735 8.83693 4.42241C8.81435 4.36747 8.78112 4.31755 8.73916 4.27552C8.69719 4.23349 8.64733 4.20019 8.59243 4.17754C8.53754 4.15488 8.47871 4.14333 8.41933 4.14353C8.35995 4.14374 8.3012 4.15571 8.24646 4.17874C8.19173 4.20177 8.1421 4.23542 8.10043 4.27774L5.34373 7.03549Z" fill="#06C00D"/>
</svg>
