<svg width="18" height="18" viewBox="0 0 18 18" fill="none" xmlns="http://www.w3.org/2000/svg">
<path d="M8.99703 15.4035C8.8933 15.4035 8.65215 15.2116 8.27357 14.8279C7.89498 14.4441 7.70569 14.2 7.70569 14.0956C7.70569 13.9285 7.86775 13.7875 8.19189 13.6726C8.51602 13.5578 8.7844 13.5003 8.99703 13.5003C9.20966 13.5003 9.47804 13.5578 9.80217 13.6726C10.1263 13.7875 10.2884 13.9285 10.2884 14.0956C10.2884 14.2 10.0991 14.4441 9.72049 14.8279C9.3419 15.2116 9.10075 15.4035 8.99703 15.4035ZM11.0974 13.281C11.087 13.281 10.9833 13.2158 10.7862 13.0852C10.5892 12.9547 10.326 12.8241 9.99665 12.6936C9.66733 12.5631 9.33412 12.4978 8.99703 12.4978C8.65993 12.4978 8.32672 12.5631 7.99741 12.6936C7.66809 12.8241 7.40619 12.9547 7.21171 13.0852C7.01724 13.2158 6.91222 13.281 6.89666 13.281C6.80331 13.281 6.56086 13.0852 6.16931 12.6936C5.77776 12.302 5.58198 12.0592 5.58198 11.9652C5.58198 11.8974 5.60791 11.8373 5.65978 11.7851C6.06429 11.383 6.57253 11.0672 7.18449 10.8374C7.79645 10.6077 8.40063 10.4928 8.99703 10.4928C9.59343 10.4928 10.1976 10.6077 10.8096 10.8374C11.4215 11.0672 11.9298 11.383 12.3343 11.7851C12.3861 11.8373 12.4121 11.8974 12.4121 11.9652C12.4121 12.0592 12.2163 12.302 11.8247 12.6936C11.4332 13.0852 11.1907 13.281 11.0974 13.281ZM13.2211 11.1507C13.1641 11.1507 13.1044 11.1298 13.0422 11.088C12.3369 10.5398 11.6834 10.1364 11.0818 9.87799C10.4802 9.61953 9.78531 9.4903 8.99703 9.4903C8.55621 9.4903 8.11409 9.54774 7.67068 9.66261C7.22727 9.77748 6.84091 9.91584 6.51159 10.0777C6.18227 10.2396 5.88796 10.4014 5.62866 10.5633C5.36935 10.7252 5.1645 10.8635 5.01411 10.9784C4.86371 11.0933 4.78333 11.1507 4.77295 11.1507C4.68479 11.1507 4.44623 10.9549 4.05727 10.5633C3.66832 10.1717 3.47384 9.9289 3.47384 9.83491C3.47384 9.77226 3.49977 9.71482 3.55163 9.66261C4.23619 8.97339 5.06597 8.4382 6.04095 8.05703C7.01594 7.67587 8.0013 7.48529 8.99703 7.48529C9.99276 7.48529 10.9781 7.67587 11.9531 8.05703C12.9281 8.4382 13.7579 8.97339 14.4424 9.66261C14.4943 9.71482 14.5202 9.77226 14.5202 9.83491C14.5202 9.9289 14.3257 10.1717 13.9368 10.5633C13.5478 10.9549 13.3093 11.1507 13.2211 11.1507ZM15.3292 9.02821C15.2722 9.02821 15.2152 9.00471 15.1581 8.95772C14.2298 8.13797 13.2665 7.52054 12.2682 7.10544C11.2698 6.69034 10.1795 6.48279 8.99703 6.48279C7.8146 6.48279 6.72422 6.69034 5.7259 7.10544C4.72757 7.52054 3.76426 8.13797 2.83595 8.95772C2.7789 9.00471 2.72185 9.02821 2.66481 9.02821C2.57664 9.02821 2.33679 8.83241 1.94524 8.44081C1.55369 8.0492 1.35791 7.80641 1.35791 7.71242C1.35791 7.64455 1.38384 7.5845 1.4357 7.53229C2.4055 6.56111 3.55941 5.80923 4.89742 5.27665C6.23543 4.74407 7.60197 4.47778 8.99703 4.47778C10.3921 4.47778 11.7586 4.74407 13.0966 5.27665C14.4346 5.80923 15.5886 6.56111 16.5584 7.53229C16.6102 7.5845 16.6361 7.64455 16.6361 7.71242C16.6361 7.80641 16.4404 8.0492 16.0488 8.44081C15.6573 8.83241 15.4174 9.02821 15.3292 9.02821Z" fill="#F5F5F5"/>
</svg>
