<svg width="31" height="9" viewBox="0 0 31 9" fill="none" xmlns="http://www.w3.org/2000/svg">
<path d="M3.46352 0.119431V8.855H2.14124V1.44171H2.09005L0 2.80664V1.54408L2.17963 0.119431H3.46352Z" fill="#F5F5F5"/>
<path d="M5.82655 8.855V7.89955L8.78249 4.83698C9.09813 4.50428 9.35832 4.21281 9.56306 3.96257C9.77064 3.70949 9.92562 3.4692 10.028 3.24171C10.1304 3.01423 10.1815 2.77252 10.1815 2.51659C10.1815 2.22655 10.1133 1.97631 9.9768 1.76588C9.84031 1.55261 9.65405 1.3891 9.41803 1.27536C9.18201 1.15877 8.91614 1.10048 8.6204 1.10048C8.3076 1.10048 8.03462 1.16446 7.80144 1.29242C7.56827 1.42038 7.38912 1.60095 7.264 1.83413C7.13888 2.0673 7.07632 2.34029 7.07632 2.65309H5.81802C5.81802 2.12133 5.9403 1.6564 6.18485 1.2583C6.4294 0.860192 6.76495 0.55166 7.19149 0.332702C7.61803 0.1109 8.10286 0 8.64599 0C9.19481 0 9.67822 0.109479 10.0962 0.328437C10.5171 0.544551 10.8455 0.840286 11.0815 1.21564C11.3176 1.58816 11.4356 2.00901 11.4356 2.47821C11.4356 2.80238 11.3744 3.11944 11.2522 3.42939C11.1327 3.73935 10.9237 4.08484 10.6251 4.46589C10.3266 4.84409 9.9114 5.30333 9.37964 5.84362L7.64362 7.66068V7.72466H11.5763V8.855H5.82655Z" fill="#F5F5F5"/>
<path d="M14.0503 7.77158C13.8171 7.77158 13.6166 7.68912 13.4488 7.52419C13.2811 7.35642 13.1972 7.15452 13.1972 6.9185C13.1972 6.68532 13.2811 6.48627 13.4488 6.32134C13.6166 6.15357 13.8171 6.06968 14.0503 6.06968C14.2834 6.06968 14.4839 6.15357 14.6517 6.32134C14.8195 6.48627 14.9034 6.68532 14.9034 6.9185C14.9034 7.0749 14.8635 7.2185 14.7839 7.34931C14.7071 7.47727 14.6048 7.57964 14.4768 7.65642C14.3489 7.73319 14.2067 7.77158 14.0503 7.77158ZM14.0503 3.39527C13.8171 3.39527 13.6166 3.3128 13.4488 3.14787C13.2811 2.9801 13.1972 2.77821 13.1972 2.54219C13.1972 2.30901 13.2811 2.10996 13.4488 1.94503C13.6166 1.77726 13.8171 1.69337 14.0503 1.69337C14.2834 1.69337 14.4839 1.77726 14.6517 1.94503C14.8195 2.10996 14.9034 2.30901 14.9034 2.54219C14.9034 2.69859 14.8635 2.84219 14.7839 2.97299C14.7071 3.10096 14.6048 3.20333 14.4768 3.2801C14.3489 3.35688 14.2067 3.39527 14.0503 3.39527Z" fill="#F5F5F5"/>
<path d="M19.6358 8.97443C19.05 8.97443 18.5268 8.87348 18.0662 8.67159C17.6083 8.46969 17.2458 8.18959 16.9785 7.8313C16.714 7.47016 16.5718 7.05215 16.5519 6.57727H17.8913C17.9083 6.83604 17.9951 7.06068 18.1515 7.2512C18.3107 7.43888 18.5183 7.5839 18.7742 7.68627C19.0301 7.78864 19.3145 7.83983 19.6273 7.83983C19.9714 7.83983 20.2756 7.78011 20.5401 7.66068C20.8074 7.54125 21.0164 7.3749 21.1671 7.16163C21.3178 6.94552 21.3932 6.6967 21.3932 6.41518C21.3932 6.12229 21.3178 5.86494 21.1671 5.64314C21.0192 5.4185 20.8017 5.24219 20.5145 5.11423C20.2301 4.98627 19.8861 4.92229 19.4823 4.92229H18.7444V3.8474H19.4823C19.8064 3.8474 20.0908 3.78911 20.3354 3.67252C20.5828 3.55593 20.7761 3.39385 20.9155 3.18626C21.0548 2.97584 21.1245 2.72986 21.1245 2.44835C21.1245 2.1782 21.0633 1.94361 20.941 1.74455C20.8216 1.54266 20.651 1.38484 20.4292 1.27109C20.2102 1.15735 19.9515 1.10048 19.6529 1.10048C19.3685 1.10048 19.1027 1.15308 18.8553 1.2583C18.6107 1.36067 18.4117 1.50853 18.2581 1.7019C18.1045 1.89242 18.0221 2.12133 18.0107 2.38863H16.7354C16.7496 1.91659 16.8889 1.50143 17.1534 1.14313C17.4207 0.784836 17.7733 0.50474 18.2112 0.302844C18.6491 0.100948 19.1354 0 19.67 0C20.2301 0 20.7136 0.109479 21.1202 0.328437C21.5297 0.544551 21.8453 0.833177 22.0671 1.19432C22.2918 1.55545 22.4027 1.95072 22.3998 2.3801C22.4027 2.8692 22.2662 3.28437 21.9903 3.6256C21.7174 3.96683 21.3534 4.19575 20.8984 4.31233V4.38058C21.4785 4.46873 21.9278 4.69906 22.2463 5.07158C22.5676 5.44409 22.7268 5.90618 22.724 6.45784C22.7268 6.93841 22.5932 7.36921 22.323 7.75026C22.0557 8.1313 21.6903 8.4313 21.2268 8.65026C20.7633 8.86637 20.233 8.97443 19.6358 8.97443Z" fill="#F5F5F5"/>
<path d="M27.3776 9.00002C26.7036 8.99718 26.1278 8.81945 25.6501 8.46685C25.1723 8.11424 24.8069 7.60097 24.5539 6.92703C24.3008 6.2531 24.1742 5.44125 24.1742 4.49148C24.1742 3.54456 24.3008 2.73555 24.5539 2.06446C24.8098 1.39337 25.1766 0.881518 25.6543 0.528911C26.1349 0.176303 26.7093 0 27.3776 0C28.0458 0 28.6188 0.177725 29.0965 0.533176C29.5742 0.885784 29.9397 1.39763 30.1927 2.06873C30.4487 2.73697 30.5766 3.54456 30.5766 4.49148C30.5766 5.44409 30.4501 6.25736 30.197 6.9313C29.9439 7.60239 29.5785 8.11566 29.1008 8.47111C28.6231 8.82372 28.0486 9.00002 27.3776 9.00002ZM27.3776 7.86116C27.969 7.86116 28.4311 7.57253 28.7638 6.99528C29.0994 6.41803 29.2671 5.58343 29.2671 4.49148C29.2671 3.76636 29.1904 3.15356 29.0368 2.65309C28.8861 2.14977 28.6686 1.76872 28.3842 1.50996C28.1027 1.24834 27.7671 1.11754 27.3776 1.11754C26.7889 1.11754 26.3268 1.40759 25.9913 1.98768C25.6558 2.56778 25.4866 3.40238 25.4837 4.49148C25.4837 5.21944 25.5591 5.83509 25.7098 6.3384C25.8633 6.83888 26.0809 7.2185 26.3624 7.47727C26.6439 7.73319 26.9823 7.86116 27.3776 7.86116Z" fill="#F5F5F5"/>
</svg>
