<svg width="67" height="47" viewBox="0 0 67 47" fill="none" xmlns="http://www.w3.org/2000/svg">
<path d="M56.2801 20.3722C56.7093 19.2521 56.9501 18.0272 56.9501 16.75C56.9501 11.2016 52.4485 6.70001 46.9001 6.70001C44.8377 6.70001 42.9115 7.32814 41.3202 8.39595C38.4204 3.37094 33.008 0 26.8001 0C17.5457 0 10.05 7.49564 10.05 16.75C10.05 17.0327 10.0605 17.3153 10.071 17.598C4.20845 19.6604 0 25.2507 0 31.8251C0 40.1477 6.75236 46.9001 15.075 46.9001H53.6001C61.0015 46.9001 67.0001 40.9015 67.0001 33.5001C67.0001 27.0199 62.3939 21.6075 56.2801 20.3722ZM41.1841 26.8001H34.3376V38.5251C34.3376 39.4463 33.5838 40.2001 32.6626 40.2001H27.6376C26.7163 40.2001 25.9626 39.4463 25.9626 38.5251V26.8001H19.116C17.6189 26.8001 16.8757 24.9994 17.933 23.9421L28.9671 12.908C29.6162 12.2589 30.684 12.2589 31.333 12.908L42.3671 23.9421C43.4245 24.9994 42.6707 26.8001 41.1841 26.8001Z" fill="#5E9BFF"/>
</svg>
