<svg width="18" height="18" viewBox="0 0 18 18" fill="none" xmlns="http://www.w3.org/2000/svg">
<path d="M2.81836 11.575C2.81836 11.4645 2.9079 11.375 3.01836 11.375H4.61836C4.72882 11.375 4.81836 11.4645 4.81836 11.575V15.175C4.81836 15.2855 4.72882 15.375 4.61836 15.375H3.01836C2.9079 15.375 2.81836 15.2855 2.81836 15.175V11.575Z" fill="#F5F5F5"/>
<path d="M5.81836 9.575C5.81836 9.46454 5.9079 9.375 6.01836 9.375H7.61836C7.72882 9.375 7.81836 9.46454 7.81836 9.575V15.175C7.81836 15.2855 7.72882 15.375 7.61836 15.375H6.01836C5.9079 15.375 5.81836 15.2855 5.81836 15.175V9.575Z" fill="#F5F5F5"/>
<path d="M8.81836 6.575C8.81836 6.46454 8.9079 6.375 9.01836 6.375H10.6184C10.7288 6.375 10.8184 6.46454 10.8184 6.575V15.175C10.8184 15.2855 10.7288 15.375 10.6184 15.375H9.01836C8.9079 15.375 8.81836 15.2855 8.81836 15.175V6.575Z" fill="#F5F5F5"/>
<path d="M11.8184 3.575C11.8184 3.46454 11.9079 3.375 12.0184 3.375H13.6184C13.7288 3.375 13.8184 3.46454 13.8184 3.575V15.175C13.8184 15.2855 13.7288 15.375 13.6184 15.375H12.0184C11.9079 15.375 11.8184 15.2855 11.8184 15.175V3.575Z" fill="#F5F5F5"/>
</svg>
