<svg width="10" height="12" viewBox="0 0 10 12" fill="none" xmlns="http://www.w3.org/2000/svg">
<path d="M1.86786 12C1.54881 12 1.27667 11.8803 1.05143 11.6408C0.826667 11.4014 0.714286 11.1115 0.714286 10.7711V1.34686H0V0.585923H2.85714V0H7.14286V0.585923H10V1.34686H9.28571V10.7711C9.28571 11.1211 9.17571 11.4133 8.95571 11.6477C8.73524 11.8826 8.46071 12 8.13214 12H1.86786ZM8.57143 1.34686H1.42857V10.7711C1.42857 10.9075 1.46976 11.0197 1.55214 11.1074C1.63452 11.1952 1.73976 11.2391 1.86786 11.2391H8.13214C8.24167 11.2391 8.34238 11.1904 8.43429 11.093C8.52571 10.9951 8.57143 10.8878 8.57143 10.7711V1.34686ZM3.43429 9.71719H4.14857V2.86874H3.43429V9.71719ZM5.85143 9.71719H6.56571V2.86874H5.85143V9.71719Z" fill="black"/>
</svg>
