<svg width="48" height="40" viewBox="0 0 48 40" fill="none" xmlns="http://www.w3.org/2000/svg">
<g opacity="0.3">
<path d="M23.7512 1.58337C22.5218 1.58556 21.3198 1.94693 20.293 2.62306C19.2662 3.29918 18.4594 4.2606 17.9717 5.38912C20.5022 7.61047 22.481 10.3904 23.7512 13.5089C25.0225 10.39 27.0026 7.61004 29.5346 5.38912C29.0466 4.25998 28.2392 3.29815 27.2116 2.62197C26.184 1.9458 24.9812 1.58479 23.7512 1.58337Z" fill="#5B0888"/>
<path d="M36.4186 8.70884C36.4209 6.53994 36.92 4.40039 37.8777 2.45435C34.7167 3.47898 31.8502 5.25227 29.5221 7.62323C27.194 9.99419 25.4733 12.8926 24.5065 16.0717C24.456 16.2325 24.3555 16.3729 24.2197 16.4726C24.0838 16.5723 23.9197 16.6261 23.7512 16.6261C23.5827 16.6261 23.4186 16.5723 23.2828 16.4726C23.1469 16.3729 23.0464 16.2325 22.9959 16.0717C22.029 12.8927 20.3083 9.99432 17.9802 7.62337C15.6521 5.25243 12.7856 3.4791 9.62476 2.45435C10.5823 4.40043 11.0814 6.53995 11.0839 8.70884V14.2508C11.0839 17.6104 12.4185 20.8324 14.7941 23.208C17.1696 25.5836 20.3916 26.9181 23.7512 26.9181C27.1108 26.9181 30.3328 25.5836 32.7084 23.208C35.084 20.8324 36.4186 17.6104 36.4186 14.2508V8.70884Z" fill="#5B0888"/>
<path d="M35.5989 37.2978C35.7336 37.4042 35.9641 37.5496 36.2904 37.734C36.6237 37.9184 36.9394 38.0106 37.2372 38.0106C37.5422 38.0106 37.6947 37.8935 37.6947 37.6595C37.6947 37.5531 37.6521 37.4609 37.567 37.3829C37.4819 37.2978 37.3259 37.202 37.0989 37.0956C36.872 36.9893 36.7018 36.9077 36.5883 36.851C36.4748 36.7871 36.3223 36.6878 36.1308 36.5531C35.9464 36.4112 35.8046 36.2658 35.7053 36.1169C35.4216 35.7126 35.2797 35.1984 35.2797 34.5743C35.2797 33.9502 35.5102 33.4253 35.9712 32.9998C36.4393 32.5671 37.0493 32.3508 37.8011 32.3508C38.3117 32.3508 38.7834 32.4076 39.216 32.521C39.6486 32.6274 39.8721 32.7693 39.8862 32.9466C39.8862 32.9679 39.8862 32.9891 39.8862 33.0104C39.8862 33.2587 39.8082 33.5743 39.6522 33.9573C39.4962 34.3332 39.3862 34.5424 39.3224 34.5849C38.8685 34.3509 38.4607 34.2339 38.099 34.2339C37.7443 34.2339 37.567 34.3615 37.567 34.6168C37.567 34.7729 37.6982 34.9112 37.9607 35.0318C38.0174 35.0601 38.099 35.0991 38.2053 35.1488C38.3117 35.1984 38.4323 35.2587 38.5671 35.3296C38.7089 35.3935 38.8578 35.4786 39.0139 35.585C39.177 35.6843 39.3508 35.819 39.5352 35.9892C39.9111 36.3438 40.099 36.8119 40.099 37.3935C40.099 38.1524 39.8898 38.773 39.4713 39.2553C39.0529 39.7376 38.4075 39.9858 37.5351 40C37.1096 40 36.723 39.9645 36.3755 39.8936C36.0351 39.8227 35.7372 39.6844 35.4819 39.4787C35.2265 39.273 35.0989 39.0248 35.0989 38.734C35.0989 38.4432 35.1521 38.156 35.2585 37.8723C35.3648 37.5815 35.4783 37.39 35.5989 37.2978Z" fill="#5B0888"/>
<path d="M30.1805 39.9148C29.5351 39.9148 29.2124 39.8439 29.2124 39.702V32.8082C29.2124 32.5671 29.3223 32.4465 29.5422 32.4465H31.4146C32.4643 32.4465 33.2196 32.6629 33.6806 33.0955C34.1487 33.5281 34.3828 34.1558 34.3828 34.9785C34.3828 35.6594 34.1629 36.2835 33.7232 36.8509C33.5033 37.1346 33.1806 37.3616 32.7551 37.5318C32.3295 37.702 31.833 37.7871 31.2656 37.7871V39.6914C31.2656 39.7765 31.1309 39.8368 30.8614 39.8723C30.599 39.9006 30.372 39.9148 30.1805 39.9148ZM31.2656 34.2976V35.9785H31.404C31.6522 35.9785 31.8614 35.9005 32.0316 35.7445C32.2018 35.5885 32.287 35.3686 32.287 35.0849C32.287 34.8012 32.2267 34.5991 32.1061 34.4785C31.9926 34.3579 31.7869 34.2976 31.4891 34.2976H31.2656Z" fill="#5B0888"/>
<path d="M25.3963 38.0637V34.2764H24.641C24.5204 34.2764 24.4353 34.1239 24.3857 33.8189C24.3644 33.67 24.3538 33.5175 24.3538 33.3615C24.3538 33.2054 24.3644 33.0529 24.3857 32.904C24.4353 32.599 24.5204 32.4465 24.641 32.4465H28.2156C28.3361 32.4465 28.4177 32.599 28.4603 32.904C28.4886 33.0529 28.5028 33.2054 28.5028 33.3615C28.5028 33.5175 28.4886 33.67 28.4603 33.8189C28.4177 34.1239 28.3361 34.2764 28.2156 34.2764H27.5028V38.0637H28.2475C28.3681 38.0637 28.4532 38.2162 28.5028 38.5212C28.5312 38.6701 28.5454 38.8226 28.5454 38.9786C28.5454 39.1347 28.5312 39.2871 28.5028 39.4361C28.4532 39.7411 28.3681 39.8935 28.2475 39.8935H24.6623C24.5417 39.8935 24.4601 39.7411 24.4176 39.4361C24.3892 39.2871 24.375 39.1347 24.375 38.9786C24.375 38.8226 24.3892 38.6701 24.4176 38.5212C24.4601 38.2162 24.5417 38.0637 24.6623 38.0637H25.3963Z" fill="#5B0888"/>
<path d="M19.9646 39.2659V32.6487C19.9646 32.4998 20.3228 32.4253 21.0391 32.4253C21.7625 32.4253 22.1242 32.4998 22.1242 32.6487V37.8616H23.7626C23.8902 37.8616 23.9789 38.0283 24.0285 38.3616C24.0498 38.5247 24.0605 38.6914 24.0605 38.8616C24.0605 39.0319 24.0498 39.2056 24.0285 39.3829C23.9718 39.7234 23.8796 39.8936 23.7519 39.8936H20.4753C20.3192 39.8936 20.1951 39.8297 20.1029 39.7021C20.0107 39.5744 19.9646 39.429 19.9646 39.2659Z" fill="#5B0888"/>
<path d="M16.8696 32.6593C16.8696 32.5175 17.2526 32.4465 18.0185 32.4465C18.7916 32.4465 19.1781 32.5175 19.1781 32.6593V37.5424C19.1781 38.2658 18.9193 38.8581 18.4015 39.3191C17.8838 39.773 17.1674 39.9999 16.2525 39.9999C15.3447 39.9999 14.6035 39.7659 14.0291 39.2978C13.4617 38.8226 13.178 38.1843 13.178 37.3828V32.6699C13.178 32.5281 13.561 32.4572 14.3269 32.4572C15.1 32.4572 15.4866 32.5281 15.4866 32.6699V37.4679C15.4866 37.6098 15.561 37.7233 15.71 37.8084C15.866 37.8935 16.0291 37.936 16.1993 37.936C16.3696 37.936 16.522 37.897 16.6568 37.819C16.7986 37.741 16.8696 37.624 16.8696 37.4679V32.6593Z" fill="#5B0888"/>
<path d="M11.2528 39.7233C11.2528 39.8652 10.9018 39.9361 10.1996 39.9361C9.49746 39.9361 9.14639 39.8652 9.14639 39.7233V34.3828H7.86976C7.74919 34.3828 7.66408 34.2196 7.61444 33.8934C7.59316 33.7373 7.58252 33.5778 7.58252 33.4146C7.58252 33.2515 7.59316 33.0919 7.61444 32.9359C7.66408 32.6097 7.74919 32.4465 7.86976 32.4465H12.4975C12.6181 32.4465 12.7032 32.6097 12.7529 32.9359C12.7741 33.0919 12.7848 33.2515 12.7848 33.4146C12.7848 33.5778 12.7741 33.7373 12.7529 33.8934C12.7032 34.2196 12.6181 34.3828 12.4975 34.3828H11.2528V39.7233Z" fill="#5B0888"/>
</g>
</svg>
