<svg width="116" height="98" viewBox="0 0 116 98" fill="none" xmlns="http://www.w3.org/2000/svg">
<path d="M58.0001 3.8667C54.9979 3.87204 52.0627 4.75449 49.5554 6.40558C47.048 8.05666 45.0777 10.4044 43.8867 13.1602C50.0663 18.5847 54.8983 25.3733 58.0001 32.9885C61.1046 25.3723 65.94 18.5837 72.1231 13.1602C70.9314 10.4029 68.9596 8.05413 66.4504 6.40293C63.9411 4.75173 61.0039 3.87016 58.0001 3.8667Z" fill="#5B0888"/>
<path d="M88.9332 21.2667C88.9389 15.9703 90.1578 10.7456 92.4963 5.99341C84.7774 8.49554 77.7774 12.8259 72.0922 18.6157C66.4071 24.4055 62.2052 31.4834 59.8443 39.2467C59.7209 39.6393 59.4755 39.9822 59.1438 40.2257C58.8121 40.4692 58.4114 40.6004 57.9999 40.6004C57.5884 40.6004 57.1877 40.4692 56.8559 40.2257C56.5242 39.9822 56.2788 39.6393 56.1555 39.2467C53.7943 31.4836 49.5923 24.4058 43.9072 18.616C38.2221 12.8263 31.2222 8.49583 23.5034 5.99341C25.8417 10.7457 27.0606 15.9704 27.0666 21.2667V34.8001C27.0666 43.0041 30.3256 50.8721 36.1267 56.6732C41.9278 62.4744 49.7959 65.7334 57.9999 65.7334C66.2039 65.7334 74.0719 62.4744 79.8731 56.6732C85.6742 50.8721 88.9332 43.0041 88.9332 34.8001V21.2667Z" fill="#5B0888"/>
<path d="M86.9322 91.0803C87.2613 91.3401 87.8242 91.6951 88.6208 92.1455C89.4349 92.5958 90.2056 92.8209 90.933 92.8209C91.6777 92.8209 92.0501 92.5351 92.0501 91.9636C92.0501 91.7038 91.9462 91.4787 91.7383 91.2881C91.5305 91.0803 91.1495 90.8465 90.5953 90.5867C90.041 90.3269 89.6254 90.1277 89.3483 89.9892C89.0712 89.8333 88.6988 89.5908 88.2312 89.2618C87.7809 88.9154 87.4345 88.5603 87.192 88.1966C86.4992 87.2094 86.1528 85.9538 86.1528 84.4296C86.1528 82.9055 86.7157 81.6239 87.8415 80.5847C88.9846 79.5282 90.474 79 92.3099 79C93.5569 79 94.7086 79.1386 95.7651 79.4157C96.8216 79.6755 97.3672 80.0218 97.4018 80.4548C97.4018 80.5068 97.4018 80.5587 97.4018 80.6107C97.4018 81.2169 97.2113 81.9876 96.8303 82.9229C96.4492 83.8408 96.1808 84.3517 96.0249 84.4556C94.9165 83.8841 93.9206 83.5983 93.0373 83.5983C92.1713 83.5983 91.7383 83.9101 91.7383 84.5336C91.7383 84.9146 92.0588 85.2523 92.6996 85.5467C92.8381 85.616 93.0373 85.7113 93.2971 85.8325C93.5569 85.9538 93.8513 86.101 94.1804 86.2742C94.5268 86.43 94.8905 86.6379 95.2715 86.8977C95.6699 87.1401 96.0942 87.4692 96.5445 87.8849C97.4624 88.7508 97.9214 89.8939 97.9214 91.3141C97.9214 93.1673 97.4105 94.6828 96.3886 95.8605C95.3668 97.0382 93.7907 97.6444 91.6604 97.679C90.6212 97.679 89.6773 97.5924 88.8287 97.4192C87.9973 97.246 87.2699 96.9083 86.6464 96.406C86.0229 95.9038 85.7112 95.2976 85.7112 94.5875C85.7112 93.8774 85.8411 93.176 86.1009 92.4832C86.3607 91.7731 86.6378 91.3055 86.9322 91.0803Z" fill="#5B0888"/>
<path d="M73.7005 97.4713C72.1245 97.4713 71.3364 97.2981 71.3364 96.9517V80.1172C71.3364 79.5283 71.6049 79.2339 72.1418 79.2339H76.7141C79.2774 79.2339 81.1219 79.7621 82.2477 80.8186C83.3908 81.8751 83.9623 83.4079 83.9623 85.4169C83.9623 87.0796 83.4254 88.6037 82.3516 89.9893C81.8147 90.682 81.0267 91.2363 79.9875 91.6519C78.9483 92.0676 77.736 92.2754 76.3504 92.2754V96.9257C76.3504 97.1335 76.0213 97.2807 75.3632 97.3673C74.7224 97.4366 74.1682 97.4713 73.7005 97.4713ZM76.3504 83.7543V87.859H76.6881C77.2943 87.859 77.8052 87.6685 78.2209 87.2874C78.6366 86.9064 78.8444 86.3695 78.8444 85.6767C78.8444 84.9839 78.6972 84.4903 78.4028 84.1959C78.1256 83.9015 77.6234 83.7543 76.896 83.7543H76.3504Z" fill="#5B0888"/>
<path d="M62.0174 92.9509V83.7023H60.1729C59.8784 83.7023 59.6706 83.3299 59.5494 82.5852C59.4974 82.2215 59.4714 81.8491 59.4714 81.4681C59.4714 81.0871 59.4974 80.7147 59.5494 80.351C59.6706 79.6063 59.8784 79.2339 60.1729 79.2339H68.9019C69.1963 79.2339 69.3955 79.6063 69.4994 80.351C69.5687 80.7147 69.6033 81.0871 69.6033 81.4681C69.6033 81.8491 69.5687 82.2215 69.4994 82.5852C69.3955 83.3299 69.1963 83.7023 68.9019 83.7023H67.1613V92.9509H68.9798C69.2742 92.9509 69.4821 93.3233 69.6033 94.068C69.6726 94.4317 69.7072 94.8041 69.7072 95.1851C69.7072 95.5661 69.6726 95.9385 69.6033 96.3022C69.4821 97.0469 69.2742 97.4193 68.9798 97.4193H60.2248C59.9304 97.4193 59.7312 97.0469 59.6273 96.3022C59.558 95.9385 59.5234 95.5661 59.5234 95.1851C59.5234 94.8041 59.558 94.4317 59.6273 94.068C59.7312 93.3233 59.9304 92.9509 60.2248 92.9509H62.0174Z" fill="#5B0888"/>
<path d="M48.7532 95.8865V79.7274C48.7532 79.3637 49.6278 79.1819 51.3771 79.1819C53.1437 79.1819 54.0269 79.3637 54.0269 79.7274V92.4572H58.0277C58.3395 92.4572 58.556 92.8642 58.6772 93.6783C58.7292 94.0766 58.7551 94.4836 58.7551 94.8993C58.7551 95.3149 58.7292 95.7393 58.6772 96.1723C58.5387 97.0036 58.3135 97.4193 58.0018 97.4193H50.0002C49.6191 97.4193 49.3161 97.2634 49.0909 96.9516C48.8658 96.6399 48.7532 96.2848 48.7532 95.8865Z" fill="#5B0888"/>
<path d="M41.1952 79.7535C41.1952 79.4071 42.1304 79.2339 44.0009 79.2339C45.8888 79.2339 46.8327 79.4071 46.8327 79.7535V91.6779C46.8327 93.4445 46.2005 94.8907 44.9362 96.0164C43.6719 97.1249 41.9226 97.6791 39.6884 97.6791C37.4715 97.6791 35.6616 97.1075 34.2588 95.9645C32.8732 94.8041 32.1804 93.2453 32.1804 91.2882V79.7794C32.1804 79.4331 33.1157 79.2599 34.9862 79.2599C36.874 79.2599 37.8179 79.4331 37.8179 79.7794V91.496C37.8179 91.8424 37.9998 92.1195 38.3635 92.3274C38.7445 92.5352 39.1428 92.6391 39.5585 92.6391C39.9742 92.6391 40.3465 92.5439 40.6756 92.3534C41.022 92.1628 41.1952 91.8771 41.1952 91.496V79.7535Z" fill="#5B0888"/>
<path d="M27.4794 97.0036C27.4794 97.35 26.6221 97.5232 24.9075 97.5232C23.1929 97.5232 22.3355 97.35 22.3355 97.0036V83.9621H19.218C18.9236 83.9621 18.7158 83.5637 18.5945 82.7671C18.5426 82.386 18.5166 81.9963 18.5166 81.598C18.5166 81.1996 18.5426 80.81 18.5945 80.4289C18.7158 79.6322 18.9236 79.2339 19.218 79.2339H30.519C30.8134 79.2339 31.0212 79.6322 31.1425 80.4289C31.1944 80.81 31.2204 81.1996 31.2204 81.598C31.2204 81.9963 31.1944 82.386 31.1425 82.7671C31.0212 83.5637 30.8134 83.9621 30.519 83.9621H27.4794V97.0036Z" fill="#5B0888"/>
</svg>
